<svg xmlns="http://www.w3.org/2000/svg" width="40" height="40" viewBox="0 0 40 40" fill="none">
  <rect width="40" height="40" rx="10" fill="#FF6B35"/>
  <!-- Young Serif-inspired R: warm chunky serifs, open bowl, strong diagonal leg -->
  <g fill="white" transform="translate(10, 8)">
    <!-- Stem -->
    <path d="M0 1.5C0 0.67 0.67 0 1.5 0H4.5C5.33 0 6 0.67 6 1.5V22.5C6 23.33 5.33 24 4.5 24H1.5C0.67 24 0 23.33 0 22.5V1.5Z"/>
    <!-- Bowl -->
    <path d="M5 0H12C16.42 0 20 3.13 20 7C20 10.87 16.42 14 12 14H5V10.5H11.5C13.99 10.5 16 9.04 16 7C16 4.96 13.99 3.5 11.5 3.5H5V0Z"/>
    <!-- Leg -->
    <path d="M11 13L19.5 23C20.1 23.72 19.58 24.8 18.65 24.8H15.2C14.7 24.8 14.23 24.57 13.92 24.18L7 16L11 13Z"/>
  </g>
</svg>
